<?xml version="1.0" standalone="no"?>
<!DOCTYPE svg PUBLIC "-//W3C//DTD SVG 1.1//EN" "http://www.w3.org/Graphics/SVG/1.1/DTD/svg11.dtd" >
<svg xmlns="http://www.w3.org/2000/svg">
<metadata>
This is a custom SVG webfont generated by Fontspring.
</metadata>
<defs>
<font id="GestaLight" horiz-adv-x="1044" >
<font-face units-per-em="2048" ascent="1497" descent="-551" />
<missing-glyph horiz-adv-x="442" />
<glyph unicode=" "  horiz-adv-x="442" />
<glyph unicode="&#x09;" horiz-adv-x="442" />
<glyph unicode="&#xa0;" horiz-adv-x="442" />
<glyph unicode="!" horiz-adv-x="550" d="M207 1319h137l-35 -946h-67zM209 0v152h133v-152h-133z" />
<glyph unicode="&#x22;" horiz-adv-x="593" d="M104 1360h121q0 -305 -43 -438h-37q-41 137 -41 438zM369 1360h120q0 -305 -43 -438h-36q-41 137 -41 438z" />
<glyph unicode="#" horiz-adv-x="1273" d="M74 383l14 72h260l78 409h-254l14 72h254l76 383h80l-76 -383h342l74 383h80l-76 -383h260l-14 -72h-260l-78 -409h254l-15 -72h-253l-76 -383h-80l76 383h-342l-74 -383h-80l76 383h-260zM426 455h342l80 409h-342z" />
<glyph unicode="$" horiz-adv-x="1116" d="M147 25l19 90q186 -41 360 -41q369 0 369 276q0 70 -21.5 116t-79 79t-104.5 50t-151 46q-201 57 -296.5 134t-95.5 224q0 150 98.5 236t282.5 100v187h103v-183q154 -6 317 -45l-18 -90q-182 41 -336 41q-338 0 -338 -237q0 -66 25.5 -113t81 -79t103.5 -48t130 -41 q14 -4 22 -6l85 -26q24 -7 76 -26.5t75 -35t58.5 -44t51 -60t28 -76.5t12.5 -101q0 -326 -373 -366v-189h-103v183h-6q-162 0 -375 45z" />
<glyph unicode="%" horiz-adv-x="1421" d="M94 1032.5q0 147.5 71 227t204 79.5t203.5 -79.5t70.5 -227t-70.5 -227.5t-203.5 -80t-204 80t-71 227.5zM186 1032.5q0 -227.5 182.5 -227.5t182.5 227.5t-182.5 227.5t-182.5 -227.5zM279 0l772 1319h96l-772 -1319h-96zM778 286.5q0 147.5 71 227.5t204 80t203.5 -80 t70.5 -227.5t-70.5 -227t-203.5 -79.5t-204 79.5t-71 227zM870 286.5q0 -227.5 182.5 -227.5t182.5 227.5t-182.5 227.5t-182.5 -227.5z" />
<glyph unicode="&#x26;" horiz-adv-x="1103" d="M92 354q0 283 225 340v4q-195 68 -194 295q0 346 426 346q172 0 360 -45l-20 -92q-190 43 -344 43q-150 0 -232 -56t-82 -204q0 -135 77 -192.5t255 -57.5h578v-86h-168v-297q0 -373 -445 -372q-436 -1 -436 374zM201 367q0 -166 87 -229.5t244 -63.5q174 0 256 65.5 t82 208.5v301h-307q-197 0 -279.5 -66t-82.5 -216z" />
<glyph unicode="'" horiz-adv-x="329" d="M104 1360h121q0 -305 -43 -438h-37q-41 137 -41 438z" />
<glyph unicode="(" horiz-adv-x="499" d="M150 485q0 557 272 850l37 -20q-115 -150 -155 -348.5t-40 -481t40 -481.5t155 -348l-37 -21q-272 293 -272 850z" />
<glyph unicode=")" horiz-adv-x="499" d="M41 -344q115 150 155 348.5t40 481t-40 481t-155 348.5l37 20q272 -293 272 -850t-272 -850z" />
<glyph unicode="*" horiz-adv-x="708" d="M104 944l191 109l-191 108l31 49l191 -110v219h57v-219l190 110l31 -49l-190 -108l190 -109l-31 -49l-190 111v-220h-57v220l-191 -111z" />
<glyph unicode="+" horiz-adv-x="1359" d="M205 432v82h432v432h86v-432h432v-82h-432v-432h-86v432h-432z" />
<glyph unicode="," horiz-adv-x="503" d="M184 -236q23 113 23 211q0 86 -17 166l125 6q4 -41 4 -73q0 -168 -100 -314z" />
<glyph unicode="-" horiz-adv-x="630" d="M104 461v86h422v-86h-422z" />
<glyph unicode="." horiz-adv-x="501" d="M184 0v152h133v-152h-133z" />
<glyph unicode="/" horiz-adv-x="718" d="M55 0l512 1319h97l-508 -1319h-101z" />
<glyph unicode="0" horiz-adv-x="1208" d="M145 659.5q0 133.5 10.5 228.5t39 185t79 145.5t133 88t197.5 32.5t198 -32.5t133 -88t78.5 -145.5t39 -185t10.5 -228.5t-10.5 -228.5t-39 -185t-78.5 -145.5t-133 -88t-198 -32.5t-197.5 32.5t-133 88t-79 145.5t-39 185t-10.5 228.5zM254 659.5q0 -120.5 6 -200.5 t26.5 -159t58.5 -125t102.5 -73.5t156.5 -27.5t156.5 27.5t102.5 73.5t58.5 125t26.5 159t6 200.5t-6 200.5t-26.5 159t-58.5 125t-102.5 73.5t-156.5 27.5t-156.5 -27.5t-102.5 -73.5t-58.5 -125t-26.5 -159t-6 -200.5z" />
<glyph unicode="1" horiz-adv-x="784" d="M84 1174l326 145h106v-1319h-106v1217l-297 -111z" />
<glyph unicode="2" horiz-adv-x="1032" d="M84 1239q201 100 403 100q174 0 280.5 -91t106.5 -267q0 -88 -34.5 -180t-84.5 -170t-143.5 -177.5t-173.5 -172.5l-209 -187h689v-94h-832v78l144 129l131 123q93 88 133 133l104 124q66 79 93.5 134t51 124.5t23.5 131.5q0 129 -76 198.5t-211 69.5q-174 0 -358 -90z " />
<glyph unicode="3" horiz-adv-x="976" d="M55 1239q178 100 408 100q168 0 276.5 -85t108.5 -257q0 -231 -197 -299q111 -27 169.5 -112.5t58.5 -220.5q0 -385 -443 -385q-180 0 -368 45l18 90q172 -41 330 -41q168 0 261 63.5t93 227.5q0 166 -85 223t-259 57h-131v94h131q156 0 234.5 54.5t78.5 199.5 q0 252 -272 252q-94 0 -199.5 -26.5t-175.5 -63.5z" />
<glyph unicode="4" horiz-adv-x="1120" d="M66 268v76q231 424 569 975h115q-332 -543 -562 -957h527l16 332h90v-332h279v-94h-279v-268h-106v268h-649z" />
<glyph unicode="5" horiz-adv-x="1050" d="M119 25l18 96q197 -47 365 -47q334 0 334 319q0 162 -81 230.5t-243 68.5h-375l23 627h708v-94h-612l-14 -439h290q412 0 412 -391q0 -416 -455 -415q-161 0 -370 45z" />
<glyph unicode="6" horiz-adv-x="1134" d="M147 627q0 170 20.5 291.5t73 221t149.5 149.5t243 50q158 0 315 -47l-22 -92q-166 45 -281 45q-213 0 -297 -126t-92 -398q184 70 377 70q184 0 289.5 -97.5t105.5 -298.5q0 -205 -113.5 -310t-326.5 -105q-252 0 -346.5 153.5t-94.5 493.5zM256 639q0 -307 68.5 -436 t273.5 -129q322 0 322 321q0 147 -74 226t-250 79q-143 0 -340 -61z" />
<glyph unicode="7" horiz-adv-x="892" d="M33 1225v94h821v-74q-197 -530 -498 -1245h-112q291 666 497 1225h-708z" />
<glyph unicode="8" horiz-adv-x="1150" d="M127 350q0 150 76 236t200 106q-244 53 -243 305q0 164 105.5 253t310 89t310 -89t105.5 -253q0 -252 -243 -305q125 -20 200.5 -106t75.5 -236q0 -178 -112.5 -274t-336 -96t-336 96t-112.5 274zM236 352q0 -279 339.5 -278.5t339.5 278.5q0 289 -339.5 289t-339.5 -289 zM268 997q0 -137 84 -199.5t223 -62.5q307 0 308 262q0 248 -307.5 248t-307.5 -248z" />
<glyph unicode="9" horiz-adv-x="1134" d="M106 924q0 205 114 310t327 105q252 0 346 -153.5t94 -493.5q0 -170 -20.5 -291.5t-72.5 -221t-149.5 -149.5t-242.5 -50q-158 0 -316 47l23 92q166 -45 280 -45q213 0 296 125t92 397q-184 -68 -375 -68q-184 0 -290 97.5t-106 298.5zM215 924q0 -147 73.5 -226.5 t250.5 -79.5q150 0 340 62q0 307 -69 436t-273 129q-322 1 -322 -321z" />
<glyph unicode=":" horiz-adv-x="546" d="M207 0v152h133v-152h-133zM207 795v151h133v-151h-133z" />
<glyph unicode=";" horiz-adv-x="555" d="M207 -236q23 113 22 211q0 86 -16 166l125 6q4 -41 4 -73q0 -168 -100 -314zM215 795v151h133v-151h-133z" />
<glyph unicode="&#x3c;" horiz-adv-x="1087" d="M205 438v86l678 445v-109l-582 -373v-8l582 -373v-112z" />
<glyph unicode="=" horiz-adv-x="1236" d="M205 240v86h827v-86h-827zM205 621v86h827v-86h-827z" />
<glyph unicode="&#x3e;" horiz-adv-x="1087" d="M205 -6v108l581 373v8l-581 373v113l678 -445v-86z" />
<glyph unicode="?" horiz-adv-x="815" d="M41 1255q147 84 319 84q160 0 261.5 -84t101.5 -245q0 -74 -25.5 -137.5t-54.5 -98.5t-88 -96q-104 -109 -142 -172.5t-38 -159.5h-92q0 127 45 206t159 200q41 45 63.5 72.5t43 77.5t20.5 108q0 115 -70.5 175t-187.5 60q-139 0 -276 -74zM270 0v152h133v-152h-133z" />
<glyph unicode="@" horiz-adv-x="1499" d="M94 655q0 684 655.5 684t655.5 -682q0 -209 -62.5 -301t-195.5 -92q-143 0 -199 103q-139 -102 -264 -103q-279 0 -278 389q0 205 79.5 302.5t243.5 97.5q127 0 289 -68v-393q0 -131 30.5 -184.5t106.5 -53.5q78 0 115 63.5t37 231.5q0 311 -133.5 455.5t-422 144.5 t-421.5 -143t-133 -450.5t132 -451t416 -143.5q174 0 336 56l29 -86q-174 -59 -367 -60q-649 0 -649 684zM520 653q0 -152 43 -221.5t144 -69.5q111 0 215 76q-14 51 -15 140v352q-88 25 -178 24q-111 0 -160 -67.5t-49 -233.5z" />
<glyph unicode="A" horiz-adv-x="1097" d="M39 0q182 645 432 1319h156q250 -674 432 -1319h-113l-100 348h-596l-100 -348h-111zM276 442h543q-121 397 -266 789h-10q-146 -392 -267 -789z" />
<glyph unicode="B" horiz-adv-x="1177" d="M182 0v1309q240 29 406 28q229 0 334.5 -79.5t105.5 -256.5q0 -244 -197 -301v-4q236 -66 236 -334q0 -373 -436 -372q-197 0 -449 10zM289 88q205 -4 282 -4q199 0 293 56.5t94 221.5q0 156 -80.5 220.5t-230.5 64.5h-358v-559zM289 737h346q143 0 214 56.5t71 193.5 q0 147 -83 201.5t-272 54.5q-141 0 -276 -14v-492z" />
<glyph unicode="C" horiz-adv-x="1081" d="M98 659q0 305 103 467q133 213 452 213q164 0 332 -43l-18 -92q-168 41 -322 41q-248 0 -352 -168q-86 -139 -86 -420q0 -287 94 -430q100 -154 320 -153q201 0 376 90l37 -86q-176 -98 -416 -98q-281 0 -407 190q-113 165 -113 489z" />
<glyph unicode="D" horiz-adv-x="1247" d="M182 0v1307q193 31 363 30q311 0 461.5 -161.5t150.5 -520.5q0 -360 -155.5 -512.5t-495.5 -152.5q-170 0 -324 10zM289 88q90 -4 256 -4q256 0 380 128t124 445q0 319 -127 452.5t-392 133.5q-123 0 -241 -14v-1141z" />
<glyph unicode="E" horiz-adv-x="1007" d="M182 0v1319h731v-94h-624v-492h522v-94h-522v-545h624v-94h-731z" />
<glyph unicode="F" horiz-adv-x="966" d="M182 0v1319h727v-94h-620v-523h528v-94h-528v-608h-107z" />
<glyph unicode="G" horiz-adv-x="1202" d="M100 657q0 305 111 473q137 209 459 209q164 0 348 -45l-19 -90q-168 41 -331 41q-262 0 -369 -168q-90 -141 -90 -418q0 -299 106 -444q104 -141 320 -141q158 0 309 69v516h107v-561q-203 -119 -428 -118q-254 0 -387 167q-136 170 -136 510z" />
<glyph unicode="H" horiz-adv-x="1292" d="M182 0v1319h107v-586h715v586h106v-1319h-106v639h-715v-639h-107z" />
<glyph unicode="I" horiz-adv-x="471" d="M182 0v1319h107v-1319h-107z" />
<glyph unicode="J" horiz-adv-x="737" d="M14 -8l11 92q86 -10 159 -10q152 0 211 61q57 59 58 232v952h106v-961q0 -211 -84 -294.5t-287 -83.5q-94 0 -174 12z" />
<glyph unicode="K" horiz-adv-x="1110" d="M182 0v1319h107v-612q350 303 641 612h135q-371 -377 -625 -596q305 -367 662 -723h-150q-281 285 -587 662h-76v-662h-107z" />
<glyph unicode="L" horiz-adv-x="942" d="M182 0v1319h107v-1225h616v-94h-723z" />
<glyph unicode="M" horiz-adv-x="1552" d="M156 0q23 602 65 1319h176l373 -969h10l373 969h178q43 -717 66 -1319h-109q-25 627 -55 1231h-10l-381 -981h-137l-379 981h-11q-31 -604 -55 -1231h-104z" />
<glyph unicode="N" horiz-adv-x="1355" d="M182 0v1319h180l699 -1231h8v1231h105v-1319h-181l-698 1231h-8v-1231h-105z" />
<glyph unicode="O" horiz-adv-x="1312" d="M98 659.5q0 679.5 557 679.5q559 0 559 -679.5t-559 -679.5q-557 0 -557 679.5zM207 659.5q0 -307.5 114.5 -446.5t333.5 -139t335 138t116 447.5t-116 447.5t-335 138t-333.5 -139t-114.5 -446.5z" />
<glyph unicode="P" horiz-adv-x="1087" d="M182 0v1309q233 29 396 28q227 0 343.5 -83t116.5 -296q0 -125 -40 -210.5t-113.5 -129t-152.5 -60.5t-181 -17q-111 0 -262 16v-557h-107zM289 645q121 -8 227 -8q96 0 162.5 11t128 43t92.5 97.5t31 165.5q0 162 -88 225.5t-283 63.5q-113 0 -270 -14v-584z" />
<glyph unicode="Q" horiz-adv-x="1323" d="M98 655q0 684 563.5 684t563.5 -677q0 -354 -152 -525q-129 -145 -389 -153v-4q174 -33 383 -148l-59 -111q-182 111 -405.5 206.5t-289.5 146.5q-215 163 -215 581zM207 659.5q0 -309.5 116.5 -447.5t338 -138t338 138t116.5 447.5t-116.5 447.5t-338 138t-338 -138 t-116.5 -447.5z" />
<glyph unicode="R" horiz-adv-x="1132" d="M182 0v1307q215 31 400 30q217 0 329.5 -78.5t112.5 -279.5q0 -174 -86 -266t-258 -121q139 -260 356 -592h-131q-190 305 -332 580q-207 0 -284 4v-584h-107zM289 678q111 -4 166 -4q266 0 363 68.5t97 226.5q0 154 -75.5 214t-253.5 60q-150 0 -297 -16v-549z" />
<glyph unicode="S" horiz-adv-x="976" d="M80 25l18 90q178 -41 344 -41q352 0 353 276q0 70 -20.5 116t-74 79t-100.5 50t-145 46q-190 57 -282.5 134t-92.5 224q0 164 112.5 252t319.5 88q154 0 338 -45l-19 -90q-178 41 -321 41q-150 0 -236 -58.5t-86 -178.5q0 -53 19.5 -95.5t44 -68t76 -50t85 -35.5 t101.5 -32l21 -6q78 -23 113.5 -36t95 -44t87 -64.5t50 -91t22.5 -133.5q0 -186 -118.5 -279t-344.5 -93q-155 0 -360 45z" />
<glyph unicode="T" d="M53 1225v94h938v-94h-416v-1225h-106v1225h-416z" />
<glyph unicode="U" horiz-adv-x="1308" d="M176 483v836h107v-825q0 -231 83 -325.5t289.5 -94.5t288.5 94t82 326v825h107v-836q0 -254 -106.5 -378.5t-371.5 -124.5q-266 0 -372.5 123.5t-106.5 379.5z" />
<glyph unicode="V" horiz-adv-x="1091" d="M41 1319h115q184 -678 387 -1231h8q203 553 387 1231h113q-172 -621 -428 -1319h-154q-256 698 -428 1319z" />
<glyph unicode="W" horiz-adv-x="1785" d="M61 1319h107q125 -641 321 -1231h13q180 635 305 1231h174q125 -596 305 -1231h12q197 590 322 1231h104q-117 -633 -356 -1319h-156q-201 700 -313 1231h-12q-113 -530 -314 -1231h-155q-240 686 -357 1319z" />
<glyph unicode="X" horiz-adv-x="1187" d="M84 0l448 676l-426 643h127q133 -223 363 -553q229 330 362 553h123l-426 -643l449 -676h-129q-186 307 -383 582q-197 -274 -383 -582h-125z" />
<glyph unicode="Y" horiz-adv-x="1073" d="M33 1319h117q182 -434 385 -756h8q203 322 385 756h112q-178 -426 -450 -846v-473h-107v473q-272 420 -450 846z" />
<glyph unicode="Z" d="M68 0v90l790 1135h-764v94h893v-90l-790 -1135h792v-94h-921z" />
<glyph unicode="[" horiz-adv-x="524" d="M174 -334v1653h318v-82h-216v-1489h216v-82h-318z" />
<glyph unicode="\" horiz-adv-x="718" d="M55 1319h97l512 -1319h-97z" />
<glyph unicode="]" horiz-adv-x="524" d="M33 -252h215v1489h-215v82h317v-1653h-317v82z" />
<glyph unicode="^" horiz-adv-x="1290" d="M205 506q217 297 256 346q49 59 88 87t96 28t96 -28t88 -87q39 -49 256 -346h-112q-139 197 -219 293q-63 76 -108.5 75.5t-108.5 -75.5q-80 -96 -220 -293h-112z" />
<glyph unicode="_" horiz-adv-x="1038" d="M-8 -258h1055v-86h-1055v86z" />
<glyph unicode="`" horiz-adv-x="569" d="M84 1298l96 76l203 -309l-47 -37z" />
<glyph unicode="a" horiz-adv-x="966" d="M84 270q0 147 98.5 216t263.5 69q135 0 261 -14v149q0 104 -62.5 145.5t-173.5 41.5q-135 0 -295 -46l-20 87q152 49 311 49q342 0 342 -267v-700h-86l-10 96q-135 -117 -324 -116q-137 0 -221 77.5t-84 212.5zM188 270q0 -98 60.5 -153.5t163.5 -55.5q168 0 295 107v295 q-119 8 -248 8q-271 0 -271 -201z" />
<glyph unicode="b" d="M170 41v1278h102v-451q139 98 289 99q180 0 267 -123t87 -379q0 -242 -87 -363.5t-298 -121.5q-190 0 -360 61zM272 92q137 -29 252 -29q166 0 226.5 97.5t60.5 296.5q0 221 -62.5 320.5t-206 99.5t-270.5 -89v-696z" />
<glyph unicode="c" horiz-adv-x="894" d="M111 471q0 496 424 496q135 0 266 -33l-17 -86q-135 31 -249 31q-166 0 -243 -101.5t-77 -306.5q0 -399 299 -399q150 0 287 67l35 -80q-147 -80 -336 -79q-195 0 -292 129t-97 362z" />
<glyph unicode="d" d="M129 475q0 246 90 369t295 123q111 0 258 -33v385h102v-1319h-86l-10 96q-150 -117 -301 -116q-348 -1 -348 495zM233 479q0 -215 62.5 -312t198 -97t278.5 96v688q-158 29 -246 29q-162 0 -227.5 -97.5t-65.5 -306.5z" />
<glyph unicode="e" horiz-adv-x="946" d="M104 461q0 236 101.5 371t286.5 135q176 0 264 -122t88 -313q0 -49 -6 -94h-629q8 -174 77.5 -271t229.5 -97q133 0 287 82l37 -76q-156 -96 -332 -96q-190 0 -297 120.5t-107 360.5zM209 522h534q0 152 -57 253.5t-194 101.5q-131 0 -204 -97.5t-79 -257.5z" />
<glyph unicode="f" horiz-adv-x="598" d="M80 862v72l135 8v135q0 141 50 201.5t190 60.5q72 0 147 -10l-8 -88q-82 8 -135 8q-86 0 -114 -33.5t-28 -138.5v-131h218v-84h-218v-862h-102v862h-135z" />
<glyph unicode="g" horiz-adv-x="1024" d="M129 477q0 246 91 368t304 122q180 0 350 -62v-1018q0 -281 -329 -280q-119 0 -316 41l17 90q188 -41 293 -41q115 0 174 43t59 158v180q-139 -98 -289 -98q-354 -1 -354 497zM233 479q0 -213 63.5 -311t205.5 -98q143 0 270 88v696q-137 29 -242 29q-166 0 -231.5 -99.5 t-65.5 -304.5z" />
<glyph unicode="h" horiz-adv-x="1048" d="M170 0v1319h102v-475q162 123 328 123q129 0 211 -74t82 -229v-664h-102v653q0 223 -203 224q-150 0 -316 -107v-770h-102z" />
<glyph unicode="i" horiz-adv-x="442" d="M170 0v946h102v-946h-102zM170 1159v160h102v-160h-102z" />
<glyph unicode="j" horiz-adv-x="442" d="M76 -373q94 207 94 385v934h102v-936q0 -217 -98 -383h-98zM170 1159v160h102v-160h-102z" />
<glyph unicode="k" horiz-adv-x="903" d="M170 0v1319h102v-809q225 197 457 436h131q-197 -209 -440 -418q221 -276 487 -528h-153q-193 193 -406 461h-76v-461h-102z" />
<glyph unicode="l" horiz-adv-x="442" d="M170 0v1319h102v-1319h-102z" />
<glyph unicode="m" horiz-adv-x="1607" d="M170 0v946h86l8 -110q152 131 309 131q86 0 156 -39t105 -113q164 152 331 152q125 0 206 -77t81 -233v-657h-102v647q0 117 -52.5 173.5t-142.5 56.5q-145 0 -303 -121q10 -51 10 -101v-655h-102v647q0 229 -199 230q-135 0 -289 -107v-770h-102z" />
<glyph unicode="n" horiz-adv-x="1048" d="M170 0v946h86l8 -108q164 129 336 129q129 0 211 -74t82 -229v-664h-102v653q0 223 -203 224q-150 0 -316 -107v-770h-102z" />
<glyph unicode="o" d="M104 473q0 229 101.5 361.5t316.5 132.5t316.5 -132.5t101.5 -361.5t-101.5 -361t-316.5 -132t-316.5 132t-101.5 361zM209 473.5q0 -403.5 313.5 -403.5t313.5 403.5t-313.5 403.5t-313.5 -403.5z" />
<glyph unicode="p" d="M170 -373v1319h86l10 -96q150 117 301 117q348 0 348 -506q0 -240 -83.5 -360.5t-286.5 -120.5q-125 0 -273 32v-385h-102zM272 90q131 -27 254 -27q166 0 225.5 99.5t59.5 296.5q0 223 -60.5 320.5t-199.5 97.5q-135 0 -279 -97v-690z" />
<glyph unicode="q" d="M129 479q0 244 90 366t303 122q182 0 352 -62v-1278h-102v451q-139 -98 -289 -98q-354 -1 -354 499zM233 481q0 -215 62.5 -313t204.5 -98q143 0 272 90v694q-137 29 -244 29q-166 0 -230.5 -99.5t-64.5 -302.5z" />
<glyph unicode="r" horiz-adv-x="681" d="M170 0v946h86l10 -106h8q100 127 279 127q55 0 98 -9l-14 -96q-49 10 -102 10q-170 0 -263 -108v-764h-102z" />
<glyph unicode="s" horiz-adv-x="837" d="M84 20l18 89q156 -39 289 -39q258 0 258 184q0 76 -48 114t-167 70q-8 2 -49 13.5t-53.5 15.5t-49 15.5t-51 20.5t-42 25.5t-40 33t-26.5 39t-20.5 50t-6.5 60.5q0 123 92.5 189.5t251.5 66.5q133 0 260 -33l-16 -86q-133 29 -252 29q-113 0 -171 -44.5t-58 -121.5 q0 -70 51 -99.5t209 -76.5q156 -45 224.5 -101.5t68.5 -173.5q0 -137 -97.5 -208.5t-275.5 -71.5q-125 -1 -299 40z" />
<glyph unicode="t" horiz-adv-x="643" d="M66 862v72l139 8l10 287h88v-283h285v-84h-285v-622q0 -90 22.5 -130t90.5 -40q70 0 153 41l35 -78q-94 -53 -205 -53q-104 0 -151 60t-47 187v635h-135z" />
<glyph unicode="u" horiz-adv-x="1040" d="M156 285v661h102v-651q0 -225 205 -225q164 0 305 100v776h102v-946h-86l-10 96q-152 -117 -323 -116q-129 0 -212 74.5t-83 230.5z" />
<glyph unicode="v" horiz-adv-x="870" d="M53 946h103q123 -512 272 -862h18q150 350 273 862h98q-119 -524 -309 -946h-146q-190 422 -309 946z" />
<glyph unicode="w" horiz-adv-x="1396" d="M53 946h103q88 -479 223 -862h16q111 383 223 862h164q113 -479 224 -862h16q135 383 223 862h98q-98 -502 -262 -946h-149q-135 455 -225 862h-17q-90 -408 -225 -862h-150q-164 444 -262 946z" />
<glyph unicode="x" horiz-adv-x="888" d="M74 0q190 305 315 475q-119 170 -309 471h110q135 -227 256 -395q121 168 256 395h107q-190 -301 -309 -471q125 -170 315 -475h-108q-156 250 -265 399q-109 -150 -264 -399h-104z" />
<glyph unicode="y" horiz-adv-x="878" d="M55 946h111q143 -510 289 -862h18q156 444 250 862h100q-168 -711 -428 -1319h-96q78 180 145 373h-53q-166 377 -336 946z" />
<glyph unicode="z" horiz-adv-x="813" d="M74 0v80l544 780h-530v86h645v-80l-545 -780h549v-86h-663z" />
<glyph unicode="{" horiz-adv-x="604" d="M106 496q74 92 97.5 140t23.5 132v334q0 123 65.5 180t219.5 57v-36q-109 -25 -143.5 -78.5t-34.5 -210.5v-264q0 -147 -144 -254q92 -68 118 -136.5t26 -205.5v-265q0 -94 45 -137t133 -63v-37q-154 0 -219.5 57.5t-65.5 179.5v334q0 84 -23.5 132.5t-97.5 140.5z" />
<glyph unicode="|" horiz-adv-x="667" d="M283 -373v1692h102v-1692h-102z" />
<glyph unicode="}" horiz-adv-x="604" d="M92 -311q88 20 133 63t45 137v353q0 147 144 254q-143 106 -144 254v352q0 94 -45 137t-133 64v36q154 0 219.5 -57t65.5 -180v-334q0 -84 23.5 -132t97.5 -140q-74 -92 -97.5 -140.5t-23.5 -132.5v-334q0 -123 -65.5 -180t-219.5 -57v37z" />
<glyph unicode="~" horiz-adv-x="1081" d="M205 629q0 37 43 79t108.5 42t184.5 -60q133 -66 180 -65q76 0 113 90l43 -49q0 -37 -43 -79t-109 -42t-184 59q-133 66 -181 66q-76 0 -112 -90z" />
<glyph unicode="&#xa2;" horiz-adv-x="929" d="M117 471q0 440 340 490v190h98v-184q127 -4 252 -33l-16 -86q-135 31 -250 31q-166 0 -243 -101.5t-77 -306.5q0 -399 299 -399q147 0 287 67l35 -80q-123 -70 -287 -77v-193h-98v193q-170 16 -255 143t-85 346z" />
<glyph unicode="&#xa3;" horiz-adv-x="1046" d="M133 594v84l135 6q-66 215 -65 322q0 158 111.5 245.5t277.5 87.5q141 0 330 -45l-19 -90q-172 41 -299 41q-125 0 -209 -58.5t-84 -180.5q0 -100 66 -316h381v-94h-357q33 -123 33 -209q0 -92 -41 -172t-108 -121h643v-94h-789v82q195 106 195 305q0 55 -37 207h-164z " />
<glyph unicode="&#xa5;" horiz-adv-x="1030" d="M70 1319h123q154 -328 323 -604h2q170 276 324 604h119q-152 -322 -347 -647h283v-94h-328v-218h328v-94h-328v-266h-108v266h-328v94h328v218h-328v94h283q-194 325 -346 647z" />
<glyph unicode="&#xa9;" horiz-adv-x="1478" d="M94 659.5q0 327.5 164 503.5t481.5 176t481 -176t163.5 -503.5t-163.5 -503.5t-481 -176t-481.5 176t-164 503.5zM184 659q0 -598 555 -598t555 598t-555 598t-555 -598zM432 659q0 176 68.5 274.5t238.5 98.5q98 0 207 -22l-14 -74q-102 20 -184 20q-129 0 -177.5 -73.5 t-48.5 -218.5q0 -135 44 -216t167 -81q111 0 203 51l35 -74q-109 -59 -244 -59q-295 -1 -295 374z" />
<glyph unicode="&#xad;" horiz-adv-x="630" d="M104 461v86h422v-86h-422z" />
<glyph unicode="&#xae;" horiz-adv-x="1013" d="M184 999.5q0 163.5 83 251.5t241 88t239.5 -88t81.5 -251.5t-81.5 -252t-239.5 -88.5t-241 88.5t-83 252zM227 999q0 -301 279 -301q281 0 280 301q0 303 -280 304q-279 -1 -279 -304zM391 815v367q74 8 115 8q133 0 133 -105q0 -90 -94 -108q33 -59 100 -162h-49 q-57 94 -92 158q-31 0 -72 4v-162h-41zM432 1010q14 -2 53 -2q63 0 88 17t25 58t-20.5 56.5t-67.5 15.5q-33 0 -78 -4v-141z" />
<glyph unicode="&#xb4;" horiz-adv-x="569" d="M186 1065l203 309l96 -76l-252 -270z" />
<glyph unicode="&#x2000;" horiz-adv-x="761" />
<glyph unicode="&#x2001;" horiz-adv-x="1522" />
<glyph unicode="&#x2002;" horiz-adv-x="761" />
<glyph unicode="&#x2003;" horiz-adv-x="1522" />
<glyph unicode="&#x2004;" horiz-adv-x="507" />
<glyph unicode="&#x2005;" horiz-adv-x="380" />
<glyph unicode="&#x2006;" horiz-adv-x="253" />
<glyph unicode="&#x2007;" horiz-adv-x="253" />
<glyph unicode="&#x2008;" horiz-adv-x="190" />
<glyph unicode="&#x2009;" horiz-adv-x="304" />
<glyph unicode="&#x200a;" horiz-adv-x="84" />
<glyph unicode="&#x2010;" horiz-adv-x="630" d="M104 461v86h422v-86h-422z" />
<glyph unicode="&#x2011;" horiz-adv-x="630" d="M104 461v86h422v-86h-422z" />
<glyph unicode="&#x2012;" horiz-adv-x="630" d="M104 461v86h422v-86h-422z" />
<glyph unicode="&#x2013;" horiz-adv-x="1411" d="M205 461v86h1001v-86h-1001z" />
<glyph unicode="&#x2014;" horiz-adv-x="1581" d="M94 461v86h1393v-86h-1393z" />
<glyph unicode="&#x2018;" horiz-adv-x="512" d="M184 954q0 236 95 369l49 -8q-25 -98 -25 -225q0 -66 10 -127z" />
<glyph unicode="&#x2019;" horiz-adv-x="512" d="M184 963q25 98 25 225q0 66 -10 127l129 8q0 -236 -95 -369z" />
<glyph unicode="&#x201c;" horiz-adv-x="729" d="M184 954q0 236 95 369l49 -8q-25 -98 -25 -225q0 -66 10 -127zM401 954q0 236 95 369l49 -8q-25 -98 -25 -225q0 -66 10 -127z" />
<glyph unicode="&#x201d;" horiz-adv-x="729" d="M184 963q25 98 25 225q0 66 -10 127l129 8q0 -236 -95 -369zM401 963q25 98 25 225q0 66 -10 127l129 8q0 -236 -94 -369z" />
<glyph unicode="&#x2022;" horiz-adv-x="811" d="M205 670q0 92 52 143t148.5 51t148.5 -51t52 -143t-52 -142.5t-148 -50.5q-98 0 -149.5 50.5t-51.5 142.5z" />
<glyph unicode="&#x2026;" horiz-adv-x="1325" d="M223 0v152h133v-152h-133zM608 0v152h133v-152h-133zM993 0v152h133v-152h-133z" />
<glyph unicode="&#x202f;" horiz-adv-x="304" />
<glyph unicode="&#x205f;" horiz-adv-x="380" />
<glyph unicode="&#x20ac;" horiz-adv-x="1181" d="M45 483v95h158q-6 90 0 184h-158v94h168q20 164 90 270q137 213 451 213q166 0 333 -43l-18 -92q-168 41 -321 41q-248 0 -353 -168q-51 -84 -73 -221h565v-94h-576q-6 -90 0 -184h576v-95h-568q18 -156 84 -256q100 -154 320 -153q201 0 377 90l37 -86 q-176 -98 -416 -98q-279 0 -408 190q-78 115 -104 313h-164z" />
<glyph unicode="&#x2122;" horiz-adv-x="1419" d="M57 1241v78h541v-78h-227v-655h-88v655h-226zM674 586l14 733h107l221 -479h2l223 479h107l14 -733h-92l-8 581h-2l-205 -440h-78l-205 440h-2l-8 -581h-88z" />
<glyph unicode="&#xe000;" horiz-adv-x="945" d="M0 945h945v-945h-945v945z" />
<glyph horiz-adv-x="501" />
</font>
</defs>
</svg>
